<svg xmlns="http://www.w3.org/2000/svg" viewBox="0 0 159.28 39.46"><defs><style>.cls-1{fill:#3e3531;}.cls-2{fill:#333;}</style></defs><title>fixus_logo_grey</title><g id="Layer_2" data-name="Layer 2"><g id="Layer_4" data-name="Layer 4"><path class="cls-1" d="M0,.35V39.11H9.69V27h8.55A4.74,4.74,0,0,0,23,22.26v-5H9.69V10H20.12a5,5,0,0,0,4.95-4.95V.35Z"/><path class="cls-1" d="M38.39.35h4.5a0,0,0,0,1,0,0V39.11a0,0,0,0,1,0,0H32.78a0,0,0,0,1,0,0V6A5.62,5.62,0,0,1,38.39.35Z"/><path class="cls-1" d="M118.9.35v24.4a4.69,4.69,0,0,1-4.34,4.67,4.48,4.48,0,0,1-4.62-4.48V5.68A5.33,5.33,0,0,0,104.6.35h-5V25.43a13.68,13.68,0,0,0,13.68,13.68h2.19a13.68,13.68,0,0,0,13.68-13.68V.35Z"/><g id="_Group_" data-name="&lt;Group&gt;"><path class="cls-1" d="M147.63,9.8h10.56V.39H147.81A12,12,0,0,0,135.76,12.1,11.77,11.77,0,0,0,142.91,23L143,23l5.12,2.15a2.19,2.19,0,0,1,.51.21,2.35,2.35,0,0,1,1.17,2.45,2.41,2.41,0,0,1-2.41,1.95H140A5.17,5.17,0,0,0,134.78,35V39.2h12.44A12,12,0,0,0,159.28,27.5a11.75,11.75,0,0,0-8.43-11.33l-4.27-1.8h0a2.39,2.39,0,0,1,1-4.57Z"/></g><path class="cls-2" d="M94.18,5.15,90.77,1.73a5.91,5.91,0,0,0-8.35,0L72,12.13h0L61.59,1.73a5.91,5.91,0,0,0-8.35,0L49.82,5.15,64.4,19.73,49.82,34.31l3.42,3.42a5.91,5.91,0,0,0,8.35,0L72,27.32h0l10.4,10.4a5.91,5.91,0,0,0,8.35,0l3.42-3.42L79.6,19.73Z"/></g></g></svg>