<svg xmlns="http://www.w3.org/2000/svg" viewBox="0 0 129.95 31.7"><defs><style>.cls-1{isolation:isolate;}.cls-2,.cls-3{fill:#ffffff;}.cls-3{mix-blend-mode:multiply;}</style></defs><title>fixus_logo_white</title><g id="Layer_2" data-name="Layer 2"><g id="Layer_4" data-name="Layer 4"><g class="cls-1"><path class="cls-2" d="M0,0V31.62H7.91V21.74h7a3.87,3.87,0,0,0,3.87-3.87v-4H7.91V7.91h8.51a4,4,0,0,0,4-4V0Z"/><path class="cls-2" d="M31.32,0H35a0,0,0,0,1,0,0V31.62a0,0,0,0,1,0,0H26.74a0,0,0,0,1,0,0v-27A4.58,4.58,0,0,1,31.32,0Z"/><path class="cls-2" d="M97,0V19.91a3.82,3.82,0,0,1-3.54,3.81,3.66,3.66,0,0,1-3.77-3.65V4.35A4.35,4.35,0,0,0,85.34,0H81.29V20.46A11.16,11.16,0,0,0,92.45,31.62h1.79A11.16,11.16,0,0,0,105.4,20.46V0Z"/><g id="_Group_" data-name="&lt;Group&gt;"><path class="cls-2" d="M120.44,7.71h8.62V0H120.6a9.75,9.75,0,0,0-9.84,9.55,9.6,9.6,0,0,0,5.83,8.87l.11,0,4.18,1.75a1.79,1.79,0,0,1,.41.17,1.92,1.92,0,0,1,1,2,2,2,0,0,1-2,1.59h-6.1A4.22,4.22,0,0,0,110,28.24V31.7h10.15A9.75,9.75,0,0,0,130,22.15a9.59,9.59,0,0,0-6.87-9.25l-3.49-1.47h0a1.95,1.95,0,0,1,.85-3.73Z"/></g><circle class="cls-3" cx="59.03" cy="9.76" transform="translate(49.08 68.76) rotate(-89.81)"/><path class="cls-3" d="M52.95,15.85h0L41.27,27.52,44,30.25a4.73,4.73,0,0,0,6.69,0L59,21.92l-3-3Z"/><path class="cls-3" d="M65,15.85l-3,3-3,3,8.33,8.33a4.73,4.73,0,0,0,6.69,0l2.74-2.74L65,15.84Z"/><path class="cls-3" d="M65,15.84h0L76.7,4.16,74,1.43a4.73,4.73,0,0,0-6.69,0L58.95,9.76l3,3Z"/><rect class="cls-3" x="59.03" y="21.92" width="0.01" height="0.01" transform="translate(1.87 48.35) rotate(-45.19)"/><path class="cls-3" d="M56,12.8l3-3L50.69,1.43a4.73,4.73,0,0,0-6.69,0L41.27,4.16,52.94,15.84h0Z"/><polygon class="cls-3" points="65.11 15.85 65.12 15.84 65.11 15.84 62.07 12.79 59.03 9.76 59.03 9.76 59.02 9.76 55.99 12.79 52.95 15.84 52.94 15.84 52.95 15.85 55.99 18.89 59.02 21.92 59.03 21.92 59.03 21.92 62.07 18.89 65.11 15.85"/></g></g></g></svg>
