<?xml version="1.0" encoding="UTF-8" standalone="no"?>
<svg
   xmlns:dc="http://purl.org/dc/elements/1.1/"
   xmlns:cc="http://creativecommons.org/ns#"
   xmlns:rdf="http://www.w3.org/1999/02/22-rdf-syntax-ns#"
   xmlns:svg="http://www.w3.org/2000/svg"
   xmlns="http://www.w3.org/2000/svg"
   xmlns:sodipodi="http://sodipodi.sourceforge.net/DTD/sodipodi-0.dtd"
   xmlns:inkscape="http://www.inkscape.org/namespaces/inkscape"
   viewBox="0 0 50 50.000001"
   version="1.1"
   id="svg26"
   sodipodi:docname="fixus_icon.svg"
   width="50"
   height="50"
   inkscape:version="0.92.2 (unknown)">
  <metadata
     id="metadata30">
    <rdf:RDF>
      <cc:Work
         rdf:about="">
        <dc:format>image/svg+xml</dc:format>
        <dc:type
           rdf:resource="http://purl.org/dc/dcmitype/StillImage" />
        <dc:title>fixus_icon</dc:title>
      </cc:Work>
    </rdf:RDF>
  </metadata>
  <sodipodi:namedview
     pagecolor="#ffffff"
     bordercolor="#666666"
     borderopacity="1"
     objecttolerance="10"
     gridtolerance="10"
     guidetolerance="10"
     inkscape:pageopacity="0"
     inkscape:pageshadow="2"
     inkscape:window-width="1366"
     inkscape:window-height="744"
     id="namedview28"
     showgrid="false"
     fit-margin-left="0.25"
     fit-margin-right="0.25"
     fit-margin-top="2.985"
     fit-margin-bottom="2.985"
     inkscape:zoom="5.359982"
     inkscape:cx="3.2648523"
     inkscape:cy="53.076789"
     inkscape:window-x="0"
     inkscape:window-y="24"
     inkscape:window-maximized="1"
     inkscape:current-layer="svg26" />
  <defs
     id="defs4">
    <style
       id="style2">.cls-1{isolation:isolate;}.cls-2{fill:#00a99d;}.cls-2,.cls-3{mix-blend-mode:multiply;}.cls-3{fill:#22b573;}.cls-4{fill:#00554f;}</style>
  </defs>
  <title
     id="title6">fixus_icon</title>
  <g
     id="Layer_2"
     data-name="Layer 2"
     transform="translate(0.25,2.9846688)">
    <g
       id="Layer_4"
       data-name="Layer 4">
      <g
         class="cls-1"
         id="g22"
         style="isolation:isolate">
        <circle
           class="cls-2"
           cx="24.76"
           cy="13.54"
           r="0.0099999998"
           transform="rotate(-89.81,24.758526,13.536498)"
           id="circle8"
           style="mix-blend-mode:multiply;fill:#00a99d" />
        <path
           class="cls-2"
           d="m 16.28,22 v 0 L 0,38.28 3.81,42.1 a 6.59,6.59 0 0 0 9.32,0 L 24.74,30.49 20.51,26.26 Z"
           id="path10"
           inkscape:connector-curvature="0"
           style="mix-blend-mode:multiply;fill:#00a99d" />
        <path
           class="cls-3"
           d="M 33.22,22 29,26.26 24.77,30.49 36.37,42.1 a 6.59,6.59 0 0 0 9.32,0 L 49.5,38.29 33.23,22 Z"
           id="path12"
           inkscape:connector-curvature="0"
           style="mix-blend-mode:multiply;fill:#22b573" />
        <path
           class="cls-3"
           d="m 33.22,22 v 0 L 49.5,5.74 45.69,1.93 a 6.59,6.59 0 0 0 -9.32,0 L 24.76,13.54 29,17.77 Z"
           id="path14"
           inkscape:connector-curvature="0"
           style="mix-blend-mode:multiply;fill:#22b573" />
        <rect
           class="cls-3"
           x="24.75"
           y="30.48"
           width="0.0099999998"
           height="0.0099999998"
           transform="rotate(-45.19,24.751,30.485027)"
           id="rect16"
           style="mix-blend-mode:multiply;fill:#22b573" />
        <path
           class="cls-2"
           d="M 20.51,17.77 24.74,13.54 13.13,1.93 a 6.59,6.59 0 0 0 -9.32,0 L 0,5.74 16.27,22 v 0 z"
           id="path18"
           inkscape:connector-curvature="0"
           style="mix-blend-mode:multiply;fill:#00a99d" />
        <polygon
           class="cls-4"
           points="24.76,13.54 24.75,13.54 24.74,13.54 20.51,17.77 16.28,22.01 16.27,22.01 16.28,22.02 20.51,26.26 24.74,30.49 24.75,30.48 24.76,30.49 28.99,26.26 33.22,22.02 33.23,22.01 33.22,22.01 28.99,17.77 "
           id="polygon20"
           style="fill:#00554f" />
      </g>
    </g>
  </g>
</svg>
