<svg xmlns="http://www.w3.org/2000/svg" viewBox="0 0 172.88 44.03"><defs><style>.cls-1{fill:#333;}.cls-2{isolation:isolate;}.cls-3{fill:#00a99d;}.cls-3,.cls-4{mix-blend-mode:multiply;}.cls-4{fill:#22b573;}.cls-5{fill:#00554f;}</style></defs><title>fixus_logo_c</title><g id="Layer_2" data-name="Layer 2"><g id="Layer_4" data-name="Layer 4"><path class="cls-1" d="M10.52.95H0V43H7.23a3.28,3.28,0,0,0,3.28-3.28V29.87H19.8a5.14,5.14,0,0,0,5.14-5.14V19.35H10.52V11.46H21.84a5.37,5.37,0,0,0,5.37-5.37V.95Z"/><path class="cls-1" d="M41.67.95h4.89a0,0,0,0,1,0,0V39.73A3.28,3.28,0,0,1,43.27,43h-7.7a0,0,0,0,1,0,0V7A6.1,6.1,0,0,1,41.67.95Z"/><path class="cls-1" d="M129,4.23v23.2a5.09,5.09,0,0,1-4.71,5.07,4.86,4.86,0,0,1-5-4.86V6.73A5.78,5.78,0,0,0,113.53.95h-5.39V28.17A14.85,14.85,0,0,0,123,43h2.38a14.85,14.85,0,0,0,14.85-14.85V.95h-7.89A3.28,3.28,0,0,0,129,4.23Z"/><g id="_Group_" data-name="&lt;Group&gt;"><path class="cls-1" d="M160.23,11.2h8.18a3.28,3.28,0,0,0,3.28-3.28V1H160.43a13,13,0,0,0-13.07,12.08A12.77,12.77,0,0,0,155.1,25.5l.15.06,5.56,2.33a2.38,2.38,0,0,1,.55.23,2.55,2.55,0,0,1,1.27,2.66A2.62,2.62,0,0,1,160,32.9H151.9a5.62,5.62,0,0,0-5.62,5.62v4.6h13.51A13,13,0,0,0,172.86,31a12.76,12.76,0,0,0-9.13-12.92l-4.64-2h0a2.59,2.59,0,0,1,1.13-5Z"/></g><g class="cls-2"><circle class="cls-3" cx="77.02" cy="13.54" r="0.01" transform="translate(63.23 90.52) rotate(-89.81)"/><path class="cls-3" d="M68.54,22h0L52.27,38.28l3.81,3.81a6.59,6.59,0,0,0,9.32,0L77,30.49l-4.23-4.23Z"/><path class="cls-4" d="M85.49,22l-4.24,4.24L77,30.49,88.63,42.1a6.59,6.59,0,0,0,9.32,0l3.81-3.81L85.5,22Z"/><path class="cls-4" d="M85.49,22h0L101.77,5.74,98,1.93a6.59,6.59,0,0,0-9.32,0L77,13.54l4.23,4.23Z"/><rect class="cls-4" x="77.01" y="30.48" width="0.01" height="0.01" transform="translate(1.11 63.64) rotate(-45.19)"/><path class="cls-3" d="M72.78,17.77,77,13.54,65.4,1.93a6.59,6.59,0,0,0-9.32,0L52.27,5.74,68.54,22h0Z"/><polygon class="cls-5" points="85.49 22.02 85.5 22.01 85.49 22.01 81.25 17.77 77.02 13.54 77.02 13.54 77.01 13.54 72.78 17.77 68.54 22.01 68.54 22.01 68.54 22.02 72.78 26.26 77.01 30.49 77.02 30.48 77.02 30.49 81.25 26.26 85.49 22.02"/></g></g></g></svg>